# xmcd
#
# Track frame offsets:
#	150
#	17296
#	34017
#	56388
#	74823
#	86888
#	109154
#	128446
#	146519
#	168496
#	186311
#	204189
#
# Disc length: 2997
#
# Revision: 1
# Processed by: cddbd v1.5.2PL0 Copyright (c) Steve Scherf et al.
# Submitted via: kJams Lite (development) 1.0patch52.50
#
DISCID=a10bb30c
DTITLE=Various Artist - Karaoke Hits of The 1980s disc 1
DYEAR=2007
DGENRE=Pop
TTITLE0=Culture Club - Karma Chameleon
TTITLE1=Madonna - Like A Virgin
TTITLE2=George Michael - Careless Whisper
TTITLE3=Berlin - Take My Breath Away
TTITLE4=Soft Cell - Tainted Love
TTITLE5=Whitney Houston - I Wanna Dance With Somebody
TTITLE6=Chris De Burgh - Lady In Red
TTITLE7=Police, The - Don't Stand So Close To Me
TTITLE8=Duran Duran - Rio
TTITLE9=Heaven 17 - Temptation
TTITLE10=Human League, The - Don't You Want Me
TTITLE11=Blondie - The Tide Is High
EXTD=
EXTT0=
EXTT1=
EXTT2=
EXTT3=
EXTT4=
EXTT5=
EXTT6=
EXTT7=
EXTT8=
EXTT9=
EXTT10=
EXTT11=
PLAYORDER=
